<?xml version="1.0" encoding="UTF-8"?>
<svg width="101px" height="88px" viewBox="0 0 101 88" version="1.1" xmlns="http://www.w3.org/2000/svg" xmlns:xlink="http://www.w3.org/1999/xlink">
    <!-- Generator: Sketch 44.1 (41455) - http://www.bohemiancoding.com/sketch -->
    <title>Group 5</title>
    <desc>Created with Sketch.</desc>
    <defs></defs>
    <g id="Page-1" stroke="none" stroke-width="1" fill="none" fill-rule="evenodd">
        <g id="Desktop" transform="translate(-769.000000, -825.000000)" fill-rule="nonzero" fill="#FFFFFF">
            <g id="2ndSection" transform="translate(0.000000, 616.000000)">
                <g id="Group-9" transform="translate(710.000000, 146.000000)">
                    <g id="noun_702731_cc">
                        <g id="Group-5" transform="translate(59.000000, 63.000000)">
                            <path d="M27.5345238,88 C29.8190476,88 31.622619,86.1917808 31.622619,83.9013699 L31.622619,33.5123288 C31.622619,32.1863014 31.0214286,30.9808219 30.0595238,29.0520548 C28.4964286,26.0383562 25.9714286,20.9753425 22.6047619,10.1260274 C23.0857143,9.64383562 23.4464286,8.8 23.4464286,8.07671233 L23.4464286,7.71506849 C23.4464286,7.4739726 23.4464286,7.35342466 23.4464286,7.11232877 C23.927381,6.99178082 24.2880952,6.50958904 24.2880952,6.02739726 L24.2880952,3.13424658 C24.2880952,1.92876712 23.3261905,0.964383562 22.1238095,0.964383562 L10.3404762,0.964383562 C9.13809524,0.964383562 8.17619048,1.92876712 8.17619048,3.13424658 L8.17619048,6.02739726 C8.17619048,6.63013699 8.53690476,6.99178082 9.01785714,7.11232877 C9.01785714,7.35342466 9.01785714,7.4739726 9.01785714,7.71506849 L9.01785714,8.07671233 C9.01785714,8.92054795 9.37857143,9.64383562 9.85952381,10.1260274 C6.97380952,20.6136986 4.20833333,25.6767123 2.525,28.690411 C1.44285714,30.739726 0.721428571,32.0657534 0.721428571,33.5123288 L0.721428571,83.9013699 C0.721428571,86.1917808 2.525,88 4.80952381,88 L27.5345238,88 Z M3.24642857,46.6520548 L29.2178571,46.6520548 L29.2178571,75.5835616 L3.24642857,75.5835616 L3.24642857,46.6520548 Z M11.422619,7.95616438 L11.422619,7.59452055 C11.422619,7.35342466 11.6630952,7.11232877 11.9035714,7.11232877 L20.4404762,7.11232877 C20.6809524,7.11232877 20.9214286,7.35342466 20.9214286,7.59452055 L20.9214286,7.95616438 C20.9214286,8.19726027 20.6809524,8.43835616 20.4404762,8.43835616 L11.9035714,8.43835616 C11.6630952,8.55890411 11.422619,8.31780822 11.422619,7.95616438 Z M20.3202381,10.969863 C22.4845238,18.0821918 24.2880952,22.6630137 25.7309524,25.9178082 C25.7309524,25.9178082 25.6107143,25.9178082 25.6107143,26.0383562 L16.1119048,36.6465753 L6.49285714,26.5205479 C8.05595238,23.2657534 10.1,18.4438356 12.1440476,10.969863 L20.3202381,10.969863 Z M10.5809524,3.25479452 L21.8833333,3.25479452 L21.8833333,4.70136986 L20.5607143,4.70136986 L12.0238095,4.70136986 L10.7011905,4.70136986 L10.7011905,3.25479452 L10.5809524,3.25479452 Z M4.80952381,29.8958904 C5.05,29.5342466 5.1702381,29.1726027 5.41071429,28.8109589 L15.5107143,39.1780822 C15.7511905,39.4191781 15.9916667,39.539726 16.352381,39.539726 C16.352381,39.539726 16.352381,39.539726 16.352381,39.539726 C16.7130952,39.539726 16.9535714,39.4191781 17.1940476,39.1780822 L26.9333333,28.3287671 C27.2940476,29.0520548 27.6547619,29.7753425 27.8952381,30.2575342 C28.7369048,31.9452055 29.2178571,32.909589 29.2178571,33.6328767 L29.2178571,44.3616438 L3.24642857,44.3616438 L3.24642857,33.6328767 C3.24642857,32.6684932 3.84761905,31.5835616 4.80952381,29.8958904 Z M3.24642857,83.9013699 L3.24642857,77.9945205 L29.2178571,77.9945205 L29.2178571,83.9013699 C29.2178571,84.8657534 28.4964286,85.5890411 27.5345238,85.5890411 L4.9297619,85.5890411 C3.96785714,85.5890411 3.24642857,84.8657534 3.24642857,83.9013699 Z" id="Shape"></path>
                            <path d="M39.6785714,88 L62.2833333,88 C64.5678571,88 66.3714286,86.1917808 66.3714286,83.9013699 L66.3714286,33.5123288 C66.3714286,32.1863014 65.7702381,30.9808219 64.8083333,29.0520548 C63.2452381,26.0383562 60.7202381,20.9753425 57.3535714,10.1260274 C57.8345238,9.64383562 58.1952381,8.8 58.1952381,8.07671233 L58.1952381,7.71506849 C58.1952381,7.4739726 58.1952381,7.35342466 58.1952381,7.11232877 C58.6761905,6.99178082 59.0369048,6.50958904 59.0369048,6.02739726 L59.0369048,3.13424658 C59.0369048,1.92876712 58.075,0.964383562 56.872619,0.964383562 L45.0892857,0.964383562 C43.8869048,0.964383562 42.925,1.92876712 42.925,3.13424658 L42.925,6.02739726 C42.925,6.63013699 43.2857143,6.99178082 43.7666667,7.11232877 C43.7666667,7.35342466 43.7666667,7.4739726 43.7666667,7.71506849 L43.7666667,8.07671233 C43.7666667,8.92054795 44.127381,9.64383562 44.6083333,10.1260274 C41.722619,20.6136986 38.9571429,25.6767123 37.2738095,28.690411 C36.1916667,30.739726 35.4702381,32.0657534 35.4702381,33.5123288 L35.4702381,83.9013699 C35.5904762,86.1917808 37.3940476,88 39.6785714,88 Z M63.9666667,75.5835616 L37.9952381,75.5835616 L37.9952381,46.6520548 L63.9666667,46.6520548 L63.9666667,75.5835616 Z M62.2833333,85.5890411 L39.6785714,85.5890411 C38.7166667,85.5890411 37.9952381,84.8657534 37.9952381,83.9013699 L37.9952381,77.9945205 L63.9666667,77.9945205 L63.9666667,83.9013699 C63.9666667,84.8657534 63.2452381,85.5890411 62.2833333,85.5890411 Z M46.1714286,7.95616438 L46.1714286,7.59452055 C46.1714286,7.35342466 46.4119048,7.11232877 46.652381,7.11232877 L55.3095238,7.11232877 C55.55,7.11232877 55.7904762,7.35342466 55.7904762,7.59452055 L55.7904762,7.95616438 C55.7904762,8.19726027 55.55,8.43835616 55.3095238,8.43835616 L46.772619,8.43835616 C46.4119048,8.55890411 46.1714286,8.31780822 46.1714286,7.95616438 Z M55.0690476,10.969863 C57.2333333,18.0821918 59.0369048,22.6630137 60.4797619,25.9178082 C60.4797619,25.9178082 60.3595238,25.9178082 60.3595238,26.0383562 L50.8607143,36.6465753 L41.2416667,26.5205479 C42.8047619,23.2657534 44.8488095,18.4438356 46.8928571,10.969863 L55.0690476,10.969863 Z M45.3297619,3.25479452 L56.6321429,3.25479452 L56.6321429,4.70136986 L55.3095238,4.70136986 L46.772619,4.70136986 L45.45,4.70136986 L45.45,3.25479452 L45.3297619,3.25479452 Z M39.4380952,29.8958904 C39.6785714,29.5342466 39.7988095,29.1726027 40.0392857,28.8109589 L50.1392857,39.1780822 C50.3797619,39.4191781 50.6202381,39.539726 50.9809524,39.539726 C50.9809524,39.539726 50.9809524,39.539726 50.9809524,39.539726 C51.3416667,39.539726 51.5821429,39.4191781 51.822619,39.1780822 L61.5619048,28.3287671 C61.922619,29.0520548 62.2833333,29.7753425 62.5238095,30.2575342 C63.3654762,31.9452055 63.8464286,32.909589 63.8464286,33.6328767 L63.8464286,44.3616438 L37.9952381,44.3616438 L37.9952381,33.6328767 C37.9952381,32.6684932 38.5964286,31.5835616 39.4380952,29.8958904 Z" id="Shape"></path>
                            <path d="M91.9821429,10.1260274 C92.4630952,9.64383562 92.8238095,8.8 92.8238095,8.07671233 L92.8238095,7.71506849 C92.8238095,7.4739726 92.8238095,7.35342466 92.8238095,7.11232877 C93.3047619,6.99178082 93.6654762,6.50958904 93.6654762,6.02739726 L93.6654762,3.13424658 C93.6654762,1.92876712 92.7035714,0.964383562 91.5011905,0.964383562 L79.7178571,0.964383562 C78.5154762,0.964383562 77.5535714,1.92876712 77.5535714,3.13424658 L77.5535714,6.02739726 C77.5535714,6.63013699 77.9142857,6.99178082 78.3952381,7.11232877 C78.3952381,7.35342466 78.3952381,7.4739726 78.3952381,7.71506849 L78.3952381,8.07671233 C78.3952381,8.92054795 78.7559524,9.64383562 79.2369048,10.1260274 C76.3511905,20.6136986 73.5857143,25.6767123 71.902381,28.690411 C70.8202381,30.739726 70.0988095,32.0657534 70.0988095,33.5123288 L70.0988095,83.9013699 C70.0988095,86.1917808 71.902381,88 74.1869048,88 L96.7916667,88 C99.0761905,88 100.879762,86.1917808 100.879762,83.9013699 L100.879762,33.5123288 C100.879762,32.1863014 100.278571,30.9808219 99.3166667,29.0520548 C97.9940476,26.0383562 95.3488095,20.9753425 91.9821429,10.1260274 Z M72.7440476,46.6520548 L98.7154762,46.6520548 L98.7154762,75.5835616 L72.7440476,75.5835616 L72.7440476,46.6520548 Z M80.9202381,7.95616438 L80.9202381,7.59452055 C80.9202381,7.35342466 81.1607143,7.11232877 81.4011905,7.11232877 L89.9380952,7.11232877 C90.1785714,7.11232877 90.4190476,7.35342466 90.4190476,7.59452055 L90.4190476,7.95616438 C90.4190476,8.19726027 90.1785714,8.43835616 89.9380952,8.43835616 L81.4011905,8.43835616 C81.1607143,8.55890411 80.9202381,8.31780822 80.9202381,7.95616438 Z M89.8178571,10.969863 C91.9821429,18.0821918 93.7857143,22.6630137 95.2285714,25.9178082 C95.2285714,25.9178082 95.1083333,25.9178082 95.1083333,26.0383562 L85.6095238,36.6465753 L75.9904762,26.5205479 C77.5535714,23.2657534 79.597619,18.4438356 81.6416667,10.969863 L89.8178571,10.969863 Z M80.0785714,3.25479452 L91.3809524,3.25479452 L91.3809524,4.70136986 L90.0583333,4.70136986 L81.5214286,4.70136986 L80.1988095,4.70136986 L80.1988095,3.25479452 L80.0785714,3.25479452 Z M74.1869048,29.8958904 C74.427381,29.5342466 74.547619,29.1726027 74.7880952,28.8109589 L84.8880952,39.1780822 C85.1285714,39.4191781 85.3690476,39.539726 85.7297619,39.539726 C85.7297619,39.539726 85.7297619,39.539726 85.7297619,39.539726 C86.0904762,39.539726 86.3309524,39.4191781 86.5714286,39.1780822 L96.3107143,28.3287671 C96.6714286,29.0520548 97.0321429,29.7753425 97.272619,30.2575342 C98.1142857,31.9452055 98.5952381,32.909589 98.5952381,33.6328767 L98.5952381,44.3616438 L72.7440476,44.3616438 L72.7440476,33.6328767 C72.7440476,32.6684932 73.225,31.5835616 74.1869048,29.8958904 Z M97.0321429,85.5890411 L74.427381,85.5890411 C73.4654762,85.5890411 72.7440476,84.8657534 72.7440476,83.9013699 L72.7440476,77.9945205 L98.7154762,77.9945205 L98.7154762,83.9013699 C98.7154762,84.8657534 97.8738095,85.5890411 97.0321429,85.5890411 Z" id="Shape"></path>
                        </g>
                    </g>
                </g>
            </g>
        </g>
    </g>
</svg>