<?xml version="1.0" encoding="utf-8"?>
<!-- Generator: Adobe Illustrator 16.0.0, SVG Export Plug-In . SVG Version: 6.00 Build 0)  -->
<!DOCTYPE svg PUBLIC "-//W3C//DTD SVG 1.1//EN" "http://www.w3.org/Graphics/SVG/1.1/DTD/svg11.dtd">
<svg version="1.1" id="Calque_3" xmlns="http://www.w3.org/2000/svg" xmlns:xlink="http://www.w3.org/1999/xlink" x="0px" y="0px"
	 width="450px" height="240px" viewBox="0 0 450 240" enable-background="new 0 0 450 240" xml:space="preserve">
<g>
	<path fill-rule="evenodd" clip-rule="evenodd" fill="none" d="M442.189,130.579c0,20.468,0,40.935,0,61.427
		c-144.586,0-289.172,0-433.759,0c0-0.944,0-1.906,0-2.871c27.874,0,55.748,0,83.872,0c0-11.384,0.035-22.088-0.063-32.793
		c-0.008-0.894-0.922-1.782-1.415-2.671c-0.465,0.926-1.292,1.835-1.34,2.782c-0.669,13.603-7.586,23.003-20.269,27.321
		c-10.279,3.501-20.871,2.198-31.468,2.428c0-45.266,0-90.089,0-135.143c2.205,0,4.129,0.084,6.039-0.055
		c0.525-0.038,1-0.741,1.499-1.139c-0.485-0.538-0.882-1.364-1.476-1.549c-0.883-0.271-1.907-0.096-2.868-0.099
		C30.103,48.2,19.266,48.183,8.43,48.163c0-0.602,0-1.205,0-2.168c46.748,0,93.498,0,140.248,0
		c-3.724,1.295-7.61,2.255-11.146,3.945c-12.538,5.997-20.958,16.113-26.456,28.532c-11.793,26.636-11.762,53.499-0.044,80.164
		c4.84,11.015,12.155,20.202,22.59,26.563c19.908,12.137,45.076,6.292,56.909-13.732c3.616-6.119,5.565-13.234,8.177-19.932
		c0.604-1.554,0.894-3.253,1.111-4.916c0.06-0.471-0.576-1.364-1.03-1.474c-0.455-0.106-1.384,0.406-1.578,0.867
		c-0.458,1.095-0.59,2.325-0.879,3.493c-2.372,9.552-5.774,18.638-12.279,26.238c-11.625,13.594-28.326,13.938-40.487,0.859
		c-6.099-6.563-10.12-14.367-12.833-22.794c-8.394-26.086-7.689-52.156,0.816-78.065c2.342-7.137,5.864-13.736,11.169-19.205
		c9.439-9.73,22.277-10.021,32.192-0.785c5.232,4.873,8.973,10.831,11.108,17.52c2.438,7.647,4.065,15.558,5.977,23.369
		c0.37,1.504,0.146,3.367,2.858,2.568c0-16.872,0-33.783,0-50.659c-2.692-0.77-2.237,1.124-2.481,2.43
		c-0.704,3.772-2.922,5.558-6.565,5.063c-1.398-0.188-2.872-0.62-4.074-1.34c-6.309-3.779-12.898-6.867-20.042-8.71
		c73.496,0,146.996,0,220.496,0c-6.188,1.549-12.303,3.227-17.756,6.751c-10.389,6.715-17.402,16.151-22.01,27.433
		c-7.773,19.05-8.707,38.81-5.428,58.884c2.268,13.888,7.078,26.729,16.783,37.296c17.949,19.548,49.424,20.381,68.348,1.789
		c9.986-9.807,15.049-22.153,17.895-35.567C440.863,138.606,441.473,134.579,442.189,130.579z M224.64,51.064
		c0,45.268,0,90.099,0,135.159c-1.995,0-3.688-0.134-5.343,0.058c-0.743,0.086-1.414,0.818-2.116,1.253
		c0.643,0.513,1.219,1.186,1.95,1.48c0.623,0.25,1.424,0.066,2.147,0.066c16.256,0,32.518,0.095,48.774-0.063
		c4.307-0.041,8.713-0.406,12.883-1.406c16.178-3.883,27.885-13.229,32.422-29.597c4.52-16.321-0.254-30.383-12.506-41.967
		c-0.592-0.56-1.125-1.183-1.768-1.863c0.9-1.155,1.713-2.185,2.514-3.227c11.643-15.18,11.242-35.438-1.164-49.147
		c-8.816-9.741-20.266-13.484-33.066-13.566c-16.137-0.104-32.275-0.025-48.415-0.023c-0.722,0-1.52-0.17-2.145,0.08
		c-0.632,0.254-1.092,0.932-1.627,1.425c0.569,0.445,1.109,1.218,1.716,1.278C220.676,51.176,222.487,51.064,224.64,51.064z"/>
	<path fill-rule="evenodd" clip-rule="evenodd" d="M442.189,130.579c-0.717,4-1.326,8.027-2.17,12.001
		c-2.846,13.414-7.908,25.761-17.895,35.567c-18.924,18.592-50.398,17.759-68.348-1.789c-9.705-10.566-14.516-23.408-16.783-37.296
		c-3.279-20.074-2.346-39.834,5.428-58.884c4.607-11.281,11.621-20.718,22.01-27.433c5.453-3.524,11.568-5.202,17.756-6.751
		c4.576,0,9.156,0,13.732,0c0.545,0.215,1.068,0.523,1.633,0.631c9.662,1.845,17.824,6.451,24.664,13.438
		c8.939,9.131,14.096,20.296,17.08,32.539c1.193,4.892,1.939,9.892,2.893,14.842C442.189,115.155,442.189,122.866,442.189,130.579z
		 M357.639,121.08c0.236,4.48,0.406,10.742,0.945,16.975c0.426,4.902,1.125,9.803,2.023,14.648
		c1.693,9.158,4.141,18.094,9.678,25.807c9.82,13.69,27.504,13.823,36.965-0.083c3.252-4.779,5.863-10.354,7.324-15.943
		c7.186-27.504,7.127-55.223,1-82.926c-1.805-8.158-4.729-15.938-10.125-22.512c-9.221-11.229-23.895-11.549-32.932-0.177
		c-3.586,4.514-6.277,10.014-8.254,15.472C358.787,87.473,357.941,103.37,357.639,121.08z"/>
	<path fill-rule="evenodd" clip-rule="evenodd" d="M161.691,45.995c7.143,1.843,13.733,4.931,20.042,8.71
		c1.202,0.72,2.676,1.152,4.074,1.34c3.644,0.494,5.861-1.291,6.565-5.063c0.244-1.306-0.211-3.199,2.481-2.43
		c0,16.876,0,33.787,0,50.659c-2.713,0.799-2.488-1.064-2.858-2.568c-1.911-7.812-3.539-15.722-5.977-23.369
		c-2.135-6.688-5.876-12.646-11.108-17.52c-9.915-9.236-22.753-8.945-32.192,0.785c-5.305,5.469-8.827,12.068-11.169,19.205
		c-8.505,25.909-9.21,51.979-0.816,78.065c2.713,8.427,6.733,16.23,12.833,22.794c12.161,13.079,28.862,12.734,40.487-0.859
		c6.505-7.601,9.907-16.687,12.279-26.238c0.289-1.168,0.421-2.398,0.879-3.493c0.194-0.461,1.123-0.974,1.578-0.867
		c0.454,0.109,1.09,1.003,1.03,1.474c-0.218,1.663-0.508,3.362-1.111,4.916c-2.611,6.697-4.561,13.813-8.177,19.932
		c-11.833,20.024-37.001,25.869-56.909,13.732c-10.435-6.36-17.75-15.548-22.59-26.563c-11.718-26.665-11.75-53.528,0.044-80.164
		c5.498-12.419,13.918-22.535,26.456-28.532c3.535-1.69,7.421-2.65,11.146-3.945C153.017,45.995,157.354,45.995,161.691,45.995z"/>
	<path fill-rule="evenodd" clip-rule="evenodd" d="M8.43,48.163c10.835,0.02,21.672,0.037,32.51,0.056
		c0.961,0.003,1.985-0.173,2.868,0.099c0.594,0.185,0.991,1.011,1.476,1.549c-0.499,0.397-0.974,1.101-1.499,1.139
		c-1.909,0.139-3.834,0.055-6.039,0.055c0,45.054,0,89.877,0,135.143c10.597-0.229,21.188,1.073,31.468-2.428
		c12.683-4.318,19.6-13.719,20.269-27.321c0.047-0.947,0.875-1.856,1.34-2.782c0.493,0.889,1.407,1.777,1.415,2.671
		c0.099,10.705,0.063,21.409,0.063,32.793c-28.124,0-55.998,0-83.872,0c0-0.962,0-1.926,0-2.892c2.488,0,4.978,0,7.508,0
		c0-45.313,0-90.138,0-135.188c-2.705,0-5.108,0-7.508,0C8.43,50.092,8.43,49.127,8.43,48.163z"/>
	<path fill-rule="evenodd" clip-rule="evenodd" fill="none" d="M8.43,51.055c2.4,0,4.804,0,7.508,0c0,45.051,0,89.875,0,135.188
		c-2.531,0-5.02,0-7.508,0C8.43,141.18,8.43,96.118,8.43,51.055z"/>
	<path fill-rule="evenodd" clip-rule="evenodd" fill="none" d="M442.189,107.444c-0.953-4.95-1.699-9.95-2.893-14.842
		c-2.984-12.243-8.141-23.408-17.08-32.539c-6.84-6.986-15.002-11.593-24.664-13.438c-0.564-0.107-1.088-0.416-1.633-0.631
		c15.424,0,30.848,0,46.27,0C442.189,66.478,442.189,86.96,442.189,107.444z"/>
	<path fill-rule="evenodd" clip-rule="evenodd" d="M224.64,51.064c-2.153,0-3.964,0.111-5.743-0.061
		c-0.606-0.061-1.146-0.833-1.716-1.278c0.535-0.493,0.995-1.171,1.627-1.425c0.625-0.25,1.423-0.08,2.145-0.08
		c16.139-0.002,32.278-0.081,48.415,0.023c12.801,0.082,24.25,3.825,33.066,13.566c12.406,13.71,12.807,33.968,1.164,49.147
		c-0.801,1.042-1.613,2.071-2.514,3.227c0.643,0.681,1.176,1.304,1.768,1.863c12.252,11.584,17.025,25.646,12.506,41.967
		c-4.537,16.368-16.244,25.714-32.422,29.597c-4.17,1-8.576,1.365-12.883,1.406c-16.256,0.158-32.518,0.063-48.774,0.063
		c-0.724,0-1.524,0.184-2.147-0.066c-0.731-0.295-1.308-0.968-1.95-1.48c0.702-0.435,1.373-1.167,2.116-1.253
		c1.654-0.191,3.348-0.058,5.343-0.058C224.64,141.163,224.64,96.332,224.64,51.064z M246.527,51.181c0,45.163,0,89.976,0,135.033
		c4.965,0,9.648-0.111,14.326,0.024c12.443,0.354,21.447-5.46,27.807-15.674c6.59-10.584,8.102-22.248,6.305-34.412
		c-0.697-4.715-1.938-9.31-4.311-13.098c-4.461,1.553-8.459,3.271-12.625,4.307c-5.523,1.37-11.207,1.979-16.664-0.421
		c-4.535-1.994-7.389-5.383-7.471-10.546c-0.08-4.995,2.424-8.607,6.861-10.508c2.701-1.154,5.818-2.153,8.666-1.967
		c6.648,0.438,13.246,1.632,20.336,2.582c-0.314,0.423-0.023,0.171,0.094-0.147c5.713-15.51,4.631-30.302-5.211-43.876
		c-4.711-6.495-11.219-10.677-19.393-11.218C259.146,50.856,252.998,51.181,246.527,51.181z M284.977,115.139
		c-4.941-5.929-12.738-8.844-19.791-7.521c-5.182,0.971-8.695,4.57-8.553,8.766c0.135,4.059,3.639,7.369,8.713,8.21
		c0.59,0.1,1.195,0.138,1.795,0.162C275.018,125.068,280.441,120.951,284.977,115.139z"/>
	<path fill-rule="evenodd" clip-rule="evenodd" fill="none" d="M357.639,121.08c0.303-17.71,1.148-33.607,6.625-48.739
		c1.977-5.458,4.668-10.958,8.254-15.472c9.037-11.372,23.711-11.053,32.932,0.177c5.396,6.574,8.32,14.354,10.125,22.512
		c6.127,27.703,6.186,55.422-1,82.926c-1.461,5.59-4.072,11.164-7.324,15.943c-9.461,13.906-27.145,13.773-36.965,0.083
		c-5.537-7.713-7.984-16.648-9.678-25.807c-0.898-4.846-1.598-9.746-2.023-14.648C358.045,131.822,357.875,125.561,357.639,121.08z"
		/>
	<path fill-rule="evenodd" clip-rule="evenodd" fill="none" d="M246.527,51.181c6.471,0,12.619-0.324,18.721,0.08
		c8.174,0.541,14.682,4.723,19.393,11.218c9.842,13.574,10.924,28.366,5.211,43.876c-0.117,0.318-0.408,0.57-0.094,0.147
		c-7.09-0.95-13.688-2.145-20.336-2.582c-2.848-0.187-5.965,0.813-8.666,1.967c-4.438,1.9-6.941,5.513-6.861,10.508
		c0.082,5.163,2.936,8.552,7.471,10.546c5.457,2.4,11.141,1.791,16.664,0.421c4.166-1.036,8.164-2.754,12.625-4.307
		c2.373,3.788,3.613,8.383,4.311,13.098c1.797,12.164,0.285,23.828-6.305,34.412c-6.359,10.214-15.363,16.028-27.807,15.674
		c-4.678-0.136-9.361-0.024-14.326-0.024C246.527,141.156,246.527,96.344,246.527,51.181z"/>
	<path fill-rule="evenodd" clip-rule="evenodd" fill="none" d="M284.977,115.139c-4.535,5.813-9.959,9.93-17.836,9.616
		c-0.6-0.024-1.205-0.063-1.795-0.162c-5.074-0.841-8.578-4.151-8.713-8.21c-0.143-4.195,3.371-7.795,8.553-8.766
		C272.238,106.295,280.035,109.21,284.977,115.139z"/>
</g>
</svg>
