<?xml version="1.0" encoding="UTF-8"?>
<svg width="106px" height="88px" viewBox="0 0 106 88" version="1.1" xmlns="http://www.w3.org/2000/svg" xmlns:xlink="http://www.w3.org/1999/xlink">
    <!-- Generator: Sketch 44.1 (41455) - http://www.bohemiancoding.com/sketch -->
    <title>Group 6</title>
    <desc>Created with Sketch.</desc>
    <defs></defs>
    <g id="Page-1" stroke="none" stroke-width="1" fill="none" fill-rule="evenodd">
        <g id="Desktop" transform="translate(-150.000000, -829.000000)" fill-rule="nonzero" fill="#FFFFFF">
            <g id="2ndSection" transform="translate(0.000000, 616.000000)">
                <g id="Group-7" transform="translate(84.000000, 140.000000)">
                    <g id="Group-6" transform="translate(66.000000, 73.000000)">
                        <path d="M87.5594059,21.8421808 L87.5594059,16.6657102 C88.9207921,16.4131994 89.9108911,15.276901 89.9108911,13.7618364 L89.9108911,7.19655667 C89.9108911,5.80774749 88.9207921,4.54519369 87.5594059,4.29268293 L87.5594059,1.2625538 C87.5594059,0.505021521 87.0643564,0 86.3217822,0 L75.6782178,0 C74.9356436,0 74.4405941,0.505021521 74.4405941,1.2625538 L74.4405941,4.29268293 C73.0792079,4.54519369 72.0891089,5.68149211 72.0891089,7.19655667 L72.0891089,13.7618364 C72.0891089,15.1506456 73.0792079,16.4131994 74.4405941,16.6657102 L74.4405941,21.8421808 C63.549505,24.8723099 56,34.8464849 56,46.4619799 L56,83.2022956 C56,85.8536585 58.1039604,88 60.7029703,88 L101.29703,88 C103.89604,88 106,85.8536585 106,83.2022956 L106,46.4619799 C106,34.8464849 98.450495,24.8723099 87.5594059,21.8421808 Z M74.9356436,14.1406026 C74.6881188,14.1406026 74.5643564,14.0143472 74.5643564,13.7618364 L74.5643564,7.19655667 C74.5643564,6.94404591 74.6881188,6.81779053 74.9356436,6.81779053 L87.1881188,6.81779053 C87.4356436,6.81779053 87.5594059,6.94404591 87.5594059,7.19655667 L87.5594059,13.7618364 C87.5594059,14.0143472 87.4356436,14.1406026 87.1881188,14.1406026 L86.3217822,14.1406026 L75.6782178,14.1406026 L74.9356436,14.1406026 Z M85.0841584,2.5251076 L85.0841584,4.29268293 L76.9158416,4.29268293 L76.9158416,2.5251076 L85.0841584,2.5251076 Z M75.9257426,24.1147776 C76.5445545,23.9885222 76.9158416,23.4835007 76.9158416,22.8522238 L76.9158416,16.6657102 L85.0841584,16.6657102 L85.0841584,22.8522238 C85.0841584,23.4835007 85.4554455,23.9885222 86.0742574,24.1147776 C95.480198,26.2611191 102.163366,34.0889527 103.277228,43.6843615 L58.7227723,43.6843615 C59.8366337,34.0889527 66.519802,26.2611191 75.9257426,24.1147776 Z M58.4752475,46.4619799 C58.4752475,46.3357245 58.4752475,46.3357245 58.4752475,46.2094692 L103.40099,46.2094692 C103.40099,46.3357245 103.40099,46.3357245 103.40099,46.4619799 L103.40099,74.6169297 L58.4752475,74.6169297 L58.4752475,46.4619799 Z M101.29703,85.348637 L60.7029703,85.348637 C59.4653465,85.348637 58.4752475,84.338594 58.4752475,83.0760402 L58.4752475,77.0157819 L103.524752,77.0157819 L103.524752,83.0760402 C103.524752,84.338594 102.534653,85.348637 101.29703,85.348637 Z" id="Shape"></path>
                        <path d="M42.6799007,88 C46.7741935,88 50,84.7173601 50,80.5509326 L50,70.1979914 L50,44.4418938 L50,29.7962697 C50,27.6499283 49.1315136,25.6298422 47.6426799,23.9885222 C46.1538462,22.4734577 44.1687345,21.58967 42.0595533,21.58967 C42.0595533,21.58967 42.0595533,21.58967 42.0595533,21.58967 L34.6153846,21.58967 C34.6153846,21.58967 34.6153846,21.58967 34.6153846,21.58967 C33.8709677,21.58967 33.1265509,21.3371593 32.5062035,20.7058824 C32.0099256,20.2008608 31.6377171,19.4433286 31.6377171,18.5595409 L31.6377171,16.6657102 L32.7543424,16.6657102 C33.4987593,16.6657102 33.9950372,16.1606887 33.9950372,15.4031564 L33.9950372,5.55523673 C33.9950372,4.79770445 33.4987593,4.29268293 32.7543424,4.29268293 L31.5136476,4.29268293 L31.5136476,1.2625538 C31.5136476,0.505021521 31.0173697,0 30.2729529,0 L19.6029777,0 C18.8585608,0 18.3622829,0.505021521 18.3622829,1.2625538 L18.3622829,4.29268293 L17.2456576,4.29268293 C16.5012407,4.29268293 16.0049628,4.79770445 16.0049628,5.55523673 L16.0049628,15.4031564 C16.0049628,16.1606887 16.5012407,16.6657102 17.2456576,16.6657102 L18.3622829,16.6657102 L18.3622829,18.5595409 C18.3622829,20.2008608 16.9975186,21.58967 15.3846154,21.58967 L7.94044665,21.58967 C3.59801489,21.58967 0,25.251076 0,29.6700143 L0,44.3156385 L0,70.071736 L0,80.4246772 C0,84.5911047 3.22580645,87.8737446 7.32009926,87.8737446 L42.6799007,87.8737446 L42.6799007,88 Z M2.48138958,45.7044476 L14.764268,45.7044476 C15.0124069,45.7044476 15.2605459,45.5781923 15.5086849,45.4519369 C18.2382134,43.17934 21.5880893,42.0430416 25.0620347,42.0430416 C28.5359801,42.0430416 31.8858561,43.17934 34.6153846,45.4519369 C34.8635236,45.5781923 35.1116625,45.7044476 35.3598015,45.7044476 L47.6426799,45.7044476 L47.6426799,68.9354376 L35.9801489,68.9354376 C35.7320099,68.9354376 35.3598015,69.061693 35.1116625,69.1879484 C32.2580645,71.713056 28.7841191,73.1018651 25.0620347,73.1018651 C21.3399504,73.1018651 17.7419355,71.713056 15.0124069,69.1879484 C14.764268,68.9354376 14.516129,68.9354376 14.1439206,68.9354376 L2.48138958,68.9354376 L2.48138958,45.7044476 Z M18.4863524,14.266858 L18.4863524,6.94404591 L31.5136476,6.94404591 L31.5136476,14.266858 L30.2729529,14.266858 L19.6029777,14.266858 L18.4863524,14.266858 Z M20.8436725,2.65136298 L29.0322581,2.65136298 L29.0322581,4.41893831 L20.8436725,4.41893831 L20.8436725,2.65136298 Z M7.94044665,24.241033 L15.5086849,24.241033 C18.4863524,24.241033 20.9677419,21.7159254 20.9677419,18.6857963 L20.9677419,16.7919656 L29.0322581,16.7919656 L29.0322581,18.6857963 C29.0322581,20.2008608 29.6526055,21.58967 30.6451613,22.5997131 C31.6377171,23.6097561 33.1265509,24.241033 34.4913151,24.241033 L41.9354839,24.241033 C43.4243176,24.241033 44.7890819,24.8723099 45.7816377,25.8823529 C46.7741935,26.892396 47.3945409,28.2812052 47.3945409,29.7962697 L47.3945409,43.3055954 L35.483871,43.3055954 C32.382134,40.9067432 28.6600496,39.6441894 24.8138958,39.6441894 C20.9677419,39.6441894 17.2456576,40.9067432 14.1439206,43.3055954 L2.48138958,43.3055954 L2.48138958,29.7962697 C2.48138958,26.7661406 4.83870968,24.241033 7.94044665,24.241033 Z M2.48138958,80.5509326 L2.48138958,71.4605452 L13.6476427,71.4605452 C16.8734491,74.1119082 20.8436725,75.6269727 24.9379653,75.6269727 C29.0322581,75.6269727 33.1265509,74.1119082 36.2282878,71.4605452 L47.3945409,71.4605452 L47.3945409,80.5509326 C47.3945409,83.2022956 45.2853598,85.4748924 42.5558313,85.4748924 L7.32009926,85.4748924 C4.59057072,85.4748924 2.48138958,83.3285509 2.48138958,80.5509326 Z" id="Shape"></path>
                    </g>
                </g>
            </g>
        </g>
    </g>
</svg>