<?xml version="1.0" encoding="UTF-8"?>
<svg width="74px" height="106px" viewBox="0 0 74 106" version="1.1" xmlns="http://www.w3.org/2000/svg" xmlns:xlink="http://www.w3.org/1999/xlink">
    <!-- Generator: Sketch 44.1 (41455) - http://www.bohemiancoding.com/sketch -->
    <title>Group 4</title>
    <desc>Created with Sketch.</desc>
    <defs></defs>
    <g id="Page-1" stroke="none" stroke-width="1" fill="none" fill-rule="evenodd">
        <g id="Desktop" transform="translate(-484.000000, -819.000000)" fill-rule="nonzero" fill="#FFFFFF">
            <g id="2ndSection" transform="translate(0.000000, 616.000000)">
                <g id="Group-8" transform="translate(411.000000, 148.000000)">
                    <g id="Group-4" transform="translate(73.000000, 55.000000)">
                        <path d="M4.3594306,106 L30.7651246,106 C33.1316726,106 35,104.140351 35,101.784795 L35,48.722807 C35,42.1520468 31.3879004,36.3251462 25.5338078,33.3497076 C24.6619217,32.9777778 24.1637011,32.1099415 24.1637011,31.2421053 L24.1637011,12.025731 C25.1601423,11.6538012 25.7829181,10.7859649 25.7829181,9.67017544 L25.7829181,6.32280702 C25.7829181,5.33099415 25.1601423,4.33918129 24.1637011,4.09122807 L24.1637011,2.10760234 C24.1637011,0.991812865 23.1672598,0 22.0462633,0 L12.8291815,0 C11.7081851,0 10.7117438,0.991812865 10.7117438,2.10760234 L10.7117438,4.21520468 C9.71530249,4.5871345 9.09252669,5.45497076 9.09252669,6.44678363 L9.09252669,9.79415205 C9.09252669,11.0339181 9.96441281,12.025731 11.0854093,12.1497076 L11.0854093,30.994152 C11.0854093,31.8619883 10.5871886,32.7298246 9.71530249,33.1017544 C3.7366548,36.077193 0,42.0280702 0,48.722807 L0,101.784795 C1.32752646e-14,104.140351 1.99288256,106 4.3594306,106 Z M32.5088968,91.8666667 L2.4911032,91.8666667 L2.4911032,84.0561404 L32.5088968,84.0561404 L32.5088968,91.8666667 Z M30.6405694,103.520468 L4.3594306,103.520468 C3.36298932,103.520468 2.61565836,102.776608 2.61565836,101.784795 L2.61565836,94.4701754 L32.5088968,94.4701754 L32.5088968,101.784795 C32.5088968,102.776608 31.6370107,103.520468 30.6405694,103.520468 Z M12.3309609,9.67017544 C12.3309609,9.67017544 12.3309609,9.79415205 12.3309609,9.67017544 L11.5836299,9.67017544 L11.5836299,6.44678363 L23.4163701,6.44678363 L23.4163701,9.67017544 L16.6903915,9.67017544 L12.3309609,9.67017544 Z M13.5765125,12.1497076 L21.6725979,12.1497076 L21.6725979,27.1508772 L13.5765125,27.1508772 L13.5765125,12.1497076 L13.5765125,12.1497076 Z M21.797153,2.47953216 L21.797153,3.96725146 L13.3274021,3.96725146 L13.3274021,2.47953216 L21.797153,2.47953216 Z M10.8362989,35.3333333 C12.5800712,34.4654971 13.5765125,32.8538012 13.5765125,30.994152 L13.5765125,29.754386 L21.6725979,29.754386 L21.6725979,31.2421053 C21.6725979,32.9777778 22.6690391,34.7134503 24.4128114,35.5812865 C29.3950178,38.1847953 32.5088968,43.2678363 32.5088968,48.8467836 L32.5088968,81.5766082 L2.4911032,81.5766082 L2.4911032,48.722807 C2.4911032,43.019883 5.72953737,37.9368421 10.8362989,35.3333333 Z" id="Shape"></path>
                        <path d="M43.3594306,106 L69.7651246,106 C72.1316726,106 74,104.140351 74,101.784795 L74,48.722807 C74,42.1520468 70.3879004,36.3251462 64.5338078,33.3497076 C63.6619217,32.9777778 63.1637011,32.1099415 63.1637011,31.2421053 L63.1637011,12.025731 C64.1601423,11.6538012 64.7829181,10.7859649 64.7829181,9.67017544 L64.7829181,6.32280702 C64.7829181,5.33099415 64.1601423,4.33918129 63.1637011,4.09122807 L63.1637011,2.10760234 C63.1637011,0.991812865 62.1672598,0 61.0462633,0 L51.8291815,0 C50.7081851,0 49.7117438,0.991812865 49.7117438,2.10760234 L49.7117438,4.21520468 C48.7153025,4.5871345 48.0925267,5.45497076 48.0925267,6.44678363 L48.0925267,9.79415205 C48.0925267,11.0339181 48.9644128,12.025731 50.0854093,12.1497076 L50.0854093,30.994152 C50.0854093,31.8619883 49.5871886,32.7298246 48.7153025,33.1017544 C42.7366548,36.077193 39,42.0280702 39,48.722807 L39,101.784795 C39,104.140351 40.9928826,106 43.3594306,106 Z M71.5088968,91.8666667 L41.4911032,91.8666667 L41.4911032,84.0561404 L71.5088968,84.0561404 L71.5088968,91.8666667 Z M69.6405694,103.520468 L43.3594306,103.520468 C42.3629893,103.520468 41.6156584,102.776608 41.6156584,101.784795 L41.6156584,94.4701754 L71.633452,94.4701754 L71.633452,101.784795 C71.5088968,102.776608 70.6370107,103.520468 69.6405694,103.520468 Z M51.3309609,9.67017544 C51.3309609,9.67017544 51.3309609,9.79415205 51.3309609,9.67017544 L50.5836299,9.67017544 L50.5836299,6.44678363 L62.4163701,6.44678363 L62.4163701,9.67017544 L55.6903915,9.67017544 L51.3309609,9.67017544 Z M52.5765125,12.1497076 L60.6725979,12.1497076 L60.6725979,27.1508772 L52.5765125,27.1508772 L52.5765125,12.1497076 L52.5765125,12.1497076 Z M60.797153,2.47953216 L60.797153,3.96725146 L52.3274021,3.96725146 L52.3274021,2.47953216 L60.797153,2.47953216 Z M49.8362989,35.3333333 C51.5800712,34.4654971 52.5765125,32.8538012 52.5765125,30.994152 L52.5765125,29.754386 L60.6725979,29.754386 L60.6725979,31.2421053 C60.6725979,32.9777778 61.6690391,34.7134503 63.4128114,35.5812865 C68.3950178,38.1847953 71.5088968,43.2678363 71.5088968,48.8467836 L71.5088968,81.5766082 L41.4911032,81.5766082 L41.4911032,48.722807 C41.4911032,43.019883 44.7295374,37.9368421 49.8362989,35.3333333 Z" id="Shape"></path>
                    </g>
                </g>
            </g>
        </g>
    </g>
</svg>